<?xml version="1.0" encoding="UTF-8" standalone="no"?>
<!-- Created with Inkscape (http://www.inkscape.org/) -->

<svg
   xmlns:dc="http://purl.org/dc/elements/1.1/"
   xmlns:cc="http://creativecommons.org/ns#"
   xmlns:rdf="http://www.w3.org/1999/02/22-rdf-syntax-ns#"
   xmlns:svg="http://www.w3.org/2000/svg"
   xmlns="http://www.w3.org/2000/svg"
   xmlns:sodipodi="http://sodipodi.sourceforge.net/DTD/sodipodi-0.dtd"
   xmlns:inkscape="http://www.inkscape.org/namespaces/inkscape"
   width="245.9745"
   height="28.867929"
   viewBox="0 0 65.080753 7.637973"
   version="1.1"
   id="svg6580"
   inkscape:version="0.92.0 r15299"
   sodipodi:docname="devry university.svg">
  <defs
     id="defs6574" />
  <sodipodi:namedview
     id="base"
     pagecolor="#ffffff"
     bordercolor="#666666"
     borderopacity="1.0"
     inkscape:pageopacity="0.0"
     inkscape:pageshadow="2"
     inkscape:zoom="3.6616056"
     inkscape:cx="122.48725"
     inkscape:cy="13.933965"
     inkscape:document-units="mm"
     inkscape:current-layer="layer1"
     showgrid="false"
     fit-margin-top="0"
     fit-margin-left="0"
     fit-margin-right="0"
     fit-margin-bottom="0"
     units="px"
     inkscape:window-width="1280"
     inkscape:window-height="744"
     inkscape:window-x="-4"
     inkscape:window-y="-4"
     inkscape:window-maximized="1" />
  <metadata
     id="metadata6577">
    <rdf:RDF>
      <cc:Work
         rdf:about="">
        <dc:format>image/svg+xml</dc:format>
        <dc:type
           rdf:resource="http://purl.org/dc/dcmitype/StillImage" />
        <dc:title></dc:title>
      </cc:Work>
    </rdf:RDF>
  </metadata>
  <g
     inkscape:label="Layer 1"
     inkscape:groupmode="layer"
     id="layer1"
     transform="translate(-147.50852,-314.21538)">
    <g
       id="g6603"
       transform="translate(0.1322919,-0.13228879)">
      <path
         id="path6582"
         d="m 155.76008,319.95419 h 2.33627 c 1.47108,0 2.87232,-0.85328 2.87867,-2.6506 0.0167,-1.67746 -1.18375,-2.6281 -2.99032,-2.62017 l -2.22462,-0.008 v 0.15928 l 0.53684,0.12647 v 4.70164 l -0.5371,0.13282 v 0.15875 z m 1.52083,-0.29131 v -4.69556 h 0.74189 c 1.10648,0 1.86452,0.83265 1.85737,2.33627 0,1.47955 -0.75089,2.35929 -1.84044,2.35929 z m 5.15805,-1.68566 h 2.35214 c -0.0228,-0.97499 -0.53551,-1.58274 -1.56845,-1.58274 -1.01547,0 -1.76662,0.87022 -1.76662,1.82034 0,1.09934 0.7276,1.82033 1.77509,1.82033 0.89588,0 1.35916,-0.34793 1.63116,-0.54716 l -0.15055,-0.23733 c -0.20902,0.12753 -0.62283,0.40508 -1.31234,0.36407 -0.68712,-0.0466 -1.03187,-0.75936 -0.96043,-1.63777 m 1.45679,-0.27781 h -1.41684 c 0.0794,-0.59982 0.32015,-1.04326 0.74374,-1.04326 0.48049,0 0.64109,0.55351 0.6731,1.04352 m 3.53933,-2.86464 v -0.15928 h 1.7399 v 0.15028 l -0.52387,0.12621 -1.99999,5.05169 h -0.3757 l -1.62349,-5.05169 -0.57044,-0.12621 v -0.15028 h 2.21033 v 0.15928 l -0.66331,0.13229 1.15094,3.83169 1.38483,-3.83143 z m 3.45573,1.55945 c 0.33549,0 0.47969,0.12621 0.62336,0.24527 l -0.28787,0.63235 c -0.11906,-0.0796 -0.23971,-0.14234 -0.46276,-0.14234 -0.32014,0.009 -0.57679,0.22145 -0.75935,0.45217 v 2.07407 l 0.77576,0.127 v 0.17145 h -2.22462 v -0.14949 l 0.53525,-0.12594 v -2.91306 l -0.53525,-0.13574 v -0.14075 l 1.33509,-0.0953 0.0656,0.90937 c 0.15188,-0.29369 0.52653,-0.90937 0.93478,-0.90937 m 1.66476,5.45941 c -0.37677,0 -0.59214,-0.1405 -0.7538,-0.24289 l 0.31221,-0.66516 c 0.18335,0.10927 0.35295,0.17383 0.5535,0.17383 0.42281,0 0.59003,-0.26167 0.73555,-0.53181 l 0.20822,-0.48128 -1.49727,-3.42688 -0.37995,-0.0648 v -0.14155 h 1.89178 v 0.14155 l -0.51938,0.13468 0.96044,2.23943 0.83872,-2.25425 -0.49477,-0.11986 v -0.14155 h 1.35467 v 0.13441 l -0.45879,0.14182 -1.70444,4.08516 c -0.15928,0.34767 -0.48789,1.01918 -1.04669,1.01918 m 9.74539,-6.85006 -0.76597,-0.15002 v -0.16431 h 1.80843 v 0.15716 l -0.54504,0.15717 -0.0881,3.28056 c -0.0471,1.23349 -0.97128,1.719 -2.16958,1.719 -1.38218,0 -2.02962,-0.50906 -2.02962,-1.719 v -3.3057 l -0.52916,-0.13229 v -0.1569 h 2.27382 v 0.17277 l -0.77364,0.1315 v 3.24273 c 0,0.97632 0.35375,1.40521 1.31974,1.40521 0.98425,0 1.56184,-0.52203 1.5539,-1.53803 z m 3.10992,4.7498 v 0.14684 h -1.91823 v -0.14684 l 0.52228,-0.12542 v -2.89242 l -0.52255,-0.13282 v -0.14764 l 1.37187,-0.0696 0.0413,0.57098 c 0.15716,-0.13388 0.66411,-0.57098 1.30228,-0.57098 0.66331,0 1.00224,0.36645 1.00224,1.00807 v 2.22356 l 0.50403,0.12673 v 0.15637 h -1.86055 v -0.15637 l 0.46488,-0.11589 v -2.1336 c 0,-0.33602 -0.1024,-0.63262 -0.5297,-0.63262 -0.37782,0 -0.76517,0.26512 -0.87498,0.33497 v 2.43152 l 0.49742,0.12515 z m 4.191,-4.57174 c 0,0.26617 -0.23601,0.48392 -0.52176,0.48392 -0.27517,0 -0.5207,-0.21775 -0.5207,-0.48418 0,-0.26485 0.24553,-0.49213 0.5207,-0.49213 0.28575,0 0.52176,0.22728 0.52176,0.49213 z m 0.47386,4.572 v 0.14658 h -1.94945 v -0.14684 l 0.52917,-0.12542 v -2.86808 l -0.52917,-0.13335 v -0.14023 l 1.42849,-0.10054 v 3.2422 l 0.52123,0.12542 z m 0.42572,-3.04853 -0.25083,-0.10266 v -0.13917 h 1.70392 v 0.13917 l -0.54319,0.13309 0.76385,2.07856 0.76518,-2.09232 -0.47175,-0.11906 v -0.1397 h 1.16601 v 0.13917 l -0.28495,0.13308 -1.32424,3.21919 h -0.29237 z m 4.09681,1.24222 h 2.32225 c -0.0238,-0.9615 -0.52838,-1.56184 -1.54888,-1.56184 -1.00277,0 -1.74386,0.85858 -1.74386,1.79626 0,1.08664 0.7186,1.79573 1.75101,1.79573 0.88635,0 1.34329,-0.34396 1.6121,-0.53843 l -0.14922,-0.23468 c -0.20532,0.12541 -0.61542,0.39766 -1.2954,0.35903 -0.67866,-0.046 -1.01838,-0.74877 -0.948,-1.61581 m 1.43668,-0.27305 h -1.397 c 0.0791,-0.59504 0.3175,-1.0324 0.73369,-1.0324 0.4744,0 0.63104,0.54769 0.66331,1.0324 m 3.65364,-1.28905 c 0.33152,0 0.47466,0.12383 0.61648,0.24078 l -0.28496,0.62653 c -0.11827,-0.0788 -0.23495,-0.14076 -0.45747,-0.14076 -0.3175,0.008 -0.56964,0.21855 -0.74956,0.4445 v 2.04523 l 0.76359,0.12673 v 0.17172 h -2.1926 v -0.14684 l 0.52731,-0.12515 v -2.87629 l -0.52731,-0.13361 v -0.1397 l 1.31788,-0.0931 0.0627,0.89694 c 0.14923,-0.28654 0.52123,-0.89694 0.92393,-0.89694 m 3.33163,0.17913 -0.081,0.85275 h -0.32121 l -0.0817,-0.57891 c -0.11748,-0.0624 -0.27543,-0.19632 -0.62283,-0.19632 -0.28364,0 -0.50324,0.15028 -0.50324,0.45323 0,0.35983 0.40111,0.50112 0.80566,0.68051 0.38444,0.16245 1.01679,0.39767 1.01679,1.01521 0,0.70299 -0.58367,1.18639 -1.28693,1.18639 -0.64638,0 -1.02685,-0.14738 -1.13771,-0.18786 l -0.0622,-0.94456 0.33126,-0.031 0.19129,0.64056 c 0.0937,0.0693 0.35454,0.27384 0.66861,0.26591 0.45032,0 0.66331,-0.23442 0.66331,-0.56886 0,-0.40031 -0.55986,-0.57282 -0.93028,-0.74374 -0.34925,-0.16351 -0.88477,-0.31221 -0.88477,-1.02394 0,-0.58473 0.49001,-0.99854 1.15174,-0.99854 0.57044,0 0.92445,0.1315 1.0832,0.17913 m 2.10423,-1.38298 c 0,0.26617 -0.23627,0.48392 -0.52176,0.48392 -0.27649,0 -0.5207,-0.21775 -0.5207,-0.48418 0,-0.26485 0.24421,-0.49213 0.5207,-0.49213 0.28575,0 0.52176,0.22728 0.52176,0.49213 z m 0.47387,4.572 v 0.14658 h -1.95077 v -0.14684 l 0.52969,-0.12542 v -2.86808 l -0.52969,-0.13335 v -0.14023 l 1.4298,-0.10054 v 3.2422 l 0.52123,0.12542 z m 1.79229,0.22384 c -0.73502,0 -0.84614,-0.28893 -0.84614,-0.9525 V 316.767 l -0.75142,-0.13124 v -0.17277 h 0.75989 l 0.50561,-1.4142 h 0.36301 l 0.0317,1.4142 h 0.89165 v 0.17277 l -0.89958,0.13124 v 2.18863 c 0,0.47546 0.0556,0.60748 0.44238,0.67257 0.19632,0.0302 0.42677,0.0302 0.62177,0.0199 l 0.0317,0.19129 c -0.21881,0.0609 -0.5752,0.13785 -1.15094,0.13785 m 1.99681,1.79758 c -0.36909,0 -0.58367,-0.14076 -0.74136,-0.24236 l 0.30745,-0.65723 c 0.17991,0.11033 0.34925,0.17251 0.54371,0.17251 0.4199,0 0.58606,-0.2585 0.72708,-0.52361 l 0.20558,-0.47519 -1.47637,-3.3819 -0.26035,-0.0648 v -0.13917 h 1.75339 v 0.13917 l -0.5125,0.13309 0.94615,2.21165 0.82656,-2.22515 -0.4871,-0.11959 v -0.13917 h 1.10543 v 0.13362 l -0.22066,0.13864 -1.68302,4.03198 c -0.15742,0.34317 -0.48127,1.00754 -1.03399,1.00754"
         inkscape:connector-curvature="0"
         style="fill:#050505;fill-rule:evenodd;stroke-width:0.26458332" />
      <path
         id="path6584"
         d="m 150.64595,317.41948 v 3.62823 l -2.61938,-5.78829 z m -0.17912,3.87456 c -0.37492,-0.25215 -1.47373,-0.9869 -1.68461,-1.1303 -0.38285,-0.25771 -0.53393,-0.43577 -0.60933,-1.28138 -0.0172,-0.18785 -0.0921,-1.01547 -0.16933,-1.87907 l -0.12965,-1.44171 z m 0.44291,-4.21561 v -2.14974 h 2.60853 l -2.6088,2.14974 z m 0,3.96928 v -3.62823 l 2.61937,-2.16006 z m 0.1778,0.24606 2.59371,-5.73114 c -0.0595,0.65458 -0.14341,1.59385 -0.20902,2.31299 l -0.0913,1.00701 c -0.0736,0.84455 -0.22569,1.02393 -0.60749,1.28137 -0.2114,0.14314 -1.31074,0.87842 -1.68592,1.1303 z m -0.44186,-6.62649 2.7e-4,2.41115 -3.13743,-2.59847 0.40111,4.42569 c 0.0405,0.45931 0.1016,0.73316 0.21008,0.9472 0.11747,0.22887 0.2831,0.37148 0.5125,0.52811 l 2.14497,1.4351 c 0,0 1.8296,-1.22581 2.14577,-1.4351 0.47996,-0.32782 0.64082,-0.57203 0.72126,-1.47531 0.036,-0.38841 0.38364,-4.23863 0.38364,-4.23863 h -3.3819 z"
         inkscape:connector-curvature="0"
         style="fill:#fec221;fill-rule:evenodd;stroke-width:0.26458332" />
    </g>
  </g>
</svg>
